<svg xmlns="http://www.w3.org/2000/svg" xmlns:xlink="http://www.w3.org/1999/xlink" x="0" y="0" width="661.3333740234375" height="419" style="
        width:661.3333740234375px;
        height:419px;
        background: transparent;
        fill: none;
">
        
        
        <svg xmlns="http://www.w3.org/2000/svg" class="role-diagram-draw-area"><g class="shapes-region" style="stroke: black; fill: none;"><g class="grouped-shape"><g class="composite-shape"><path class="real" d=" M242.45,204 C250.53,158.16 294.24,121 340.08,121 C385.92,121 416.53,158.16 408.45,204 C400.37,249.84 356.65,287 310.81,287 C264.97,287 234.37,249.84 242.45,204 Z" style="stroke-width: 2; stroke: rgb(0, 0, 0); fill: none; fill-opacity: 1;"/></g><g class="arrow-line"><path class="connection real" stroke-dasharray="" d="  M325.45,204 L339.74,122.97" style="stroke: rgb(0, 0, 0); stroke-width: 1; fill: none; fill-opacity: 1;"/><g stroke="#000" transform="matrix(-0.17364817766692986,0.9848077530122081,-0.9848077530122081,-0.17364817766692986,340.08390978784473,121)" style="stroke: rgb(0, 0, 0); stroke-width: 1;"><path d=" M10.93,-3.29 Q4.96,-0.45 0,0 Q4.96,0.45 10.93,3.29"/></g></g><g class="arrow-line"><path class="connection real" stroke-dasharray="" d="  M325.45,204 L366.15,240.66" style="stroke: rgb(0, 0, 0); stroke-width: 1; fill: none; fill-opacity: 1;"/><g stroke="#000" transform="matrix(-0.7430280288371762,-0.6692602994069948,0.6692602994069948,-0.7430280288371762,367.63288772135957,241.99999999999994)" style="stroke: rgb(0, 0, 0); stroke-width: 1;"><path d=" M10.93,-3.29 Q4.96,-0.45 0,0 Q4.96,0.45 10.93,3.29"/></g></g></g><g/></g><g/><g/><g/></svg>
        <svg xmlns="http://www.w3.org/2000/svg" xmlns:xlink="http://www.w3.org/1999/xlink" width="660" height="417.66668701171875" style="width:660px;height:417.66668701171875px;font-family:Asana-Math, Asana;background:transparent;"><g><g><g><g transform="matrix(1,0,0,1,116.93753051757812,336.3604370117188)"><path transform="matrix(0.03735,0,0,-0.03735,0,0)" d="M91 46C91 3 116 0 137 0L188 0C230 0 233 26 233 46L233 268L360 268C452 268 641 269 641 479C641 535 626 592 585 632C521 695 425 694 345 694L137 694C92 694 91 664 91 643ZM230 347L230 571L231 608L351 608C436 608 505 597 507 483C507 427 505 347 364 347ZM794 49C794 34 792 0 838 0L874 0C920 0 919 31 919 47L919 214L1036 323L1259 28C1274 9 1282 0 1312 0L1371 0C1386 0 1402 1 1404 25C1403 33 1398 39 1393 46L1122 403L1122 404L1372 639C1385 651 1398 660 1398 674C1398 684 1390 694 1369 694L1302 694C1281 694 1267 691 1251 678L919 367L919 652C918 687 899 694 874 694L839 694C795 694 794 664 794 646ZM1558 240C1558 30 1698 -22 1850 -22C2064 -21 2138 84 2138 243L2138 648C2138 673 2129 694 2096 694L2052 694C2034 694 2004 694 2004 649L2004 243C2004 158 1998 66 1854 64L1829 65C1712 74 1700 150 1700 242L1700 647C1700 692 1673 694 1654 694L1604 694C1558 694 1558 665 1558 644Z" stroke="rgb(0,0,0)" stroke-opacity="1" stroke-width="8" fill="rgb(0,0,0)" fill-opacity="1"></path></g></g><g><g transform="matrix(1,0,0,1,200.26040649414062,336.3604370117188)"><path transform="matrix(0.03735,0,0,-0.03735,0,0)" d="M80 250C80 -54 207 -192 271 -250L333 -250L301 -216C184 -81 158 103 158 250C158 387 181 529 252 648C281 697 304 719 333 750L271 750C203 689 80 551 80 250Z" stroke="rgb(0,0,0)" stroke-opacity="1" stroke-width="8" fill="rgb(0,0,0)" fill-opacity="1"></path></g></g><g><g transform="matrix(1,0,0,1,214.79165649414062,336.3604370117188)"><path transform="matrix(0.03735,0,0,-0.03735,0,0)" d="M60 347C60 124 163 -23 427 -23C511 -23 555 -13 621 24C633 31 645 35 645 51C645 56 644 60 641 96C638 123 638 142 626 142C596 142 576 78 432 78C248 78 202 201 202 348C202 490 247 616 428 616C543 616 584 551 603 551C610 551 614 559 618 580C629 640 633 658 633 666C633 670 632 672 630 676C623 683 624 682 607 688C547 706 508 717 429 717C239 717 60 643 60 347Z" stroke="rgb(0,0,0)" stroke-opacity="1" stroke-width="8" fill="rgb(0,0,0)" fill-opacity="1"></path></g></g><g><g transform="matrix(1,0,0,1,241.05209350585938,336.3604370117188)"><path transform="matrix(0.03735,0,0,-0.03735,0,0)" d="M65 85C65 47 83 -11 154 -11C236 -11 291 12 331 35L324 0L400 0L458 275C462 298 466 309 466 330C466 390 429 461 331 461C263 461 213 442 165 417L157 350C191 369 241 401 319 401C374 401 387 353 387 323C387 307 385 299 374 245C333 245 245 241 170 211C90 180 65 135 65 85ZM140 104C140 127 158 152 201 168C247 185 304 192 362 193C349 128 347 121 344 113C329 75 279 51 219 51C169 51 140 76 140 104ZM561 0L636 0L790 722L714 722ZM795 171C795 70 861 -11 969 -11C1037 -11 1094 14 1138 40L1146 106C1114 85 1056 50 982 50C913 50 866 106 866 182C866 193 867 190 870 220L1180 220C1185 246 1191 272 1191 307C1191 430 1114 461 1053 461C922 461 795 317 795 171ZM887 275C913 336 973 399 1041 399C1076 399 1135 381 1135 288L1135 275ZM1243 0L1321 0C1366 214 1371 241 1379 267C1392 309 1430 394 1506 394C1545 394 1587 381 1587 328C1587 315 1585 302 1582 289L1521 0L1599 0L1661 291C1665 312 1669 334 1669 355C1669 425 1629 455 1558 455C1484 455 1432 415 1397 380L1411 450L1338 450ZM1755 155C1755 78 1793 -11 1884 -11C1955 -11 2010 24 2046 52L2035 0L2114 0L2267 722L2192 722L2124 401C2102 421 2062 455 1988 455C1869 455 1755 308 1755 155ZM1834 167C1834 298 1925 394 2022 394C2083 394 2106 348 2106 338C2106 323 2096 285 2065 140C2061 120 2063 120 2037 94C2015 71 1980 51 1940 51C1896 51 1834 75 1834 167ZM2262 85C2262 47 2280 -11 2351 -11C2433 -11 2488 12 2528 35L2521 0L2597 0L2655 275C2659 298 2663 309 2663 330C2663 390 2626 461 2528 461C2460 461 2410 442 2362 417L2354 350C2388 369 2438 401 2516 401C2571 401 2584 353 2584 323C2584 307 2582 299 2571 245C2530 245 2442 241 2367 211C2287 180 2262 135 2262 85ZM2337 104C2337 127 2355 152 2398 168C2444 185 2501 192 2559 193C2546 128 2544 121 2541 113C2526 75 2476 51 2416 51C2366 51 2337 76 2337 104ZM2730 0L2805 0C2848 200 2853 227 2862 250C2888 314 2958 385 3058 388L3072 455C3035 454 2960 449 2876 360L2895 450L2825 450Z" stroke="rgb(0,0,0)" stroke-opacity="1" stroke-width="8" fill="rgb(0,0,0)" fill-opacity="1"></path></g></g><g><g transform="matrix(1,0,0,1,352.7604064941406,336.3604370117188)"><path transform="matrix(0.03735,0,0,-0.03735,0,0)" d="M118 -220C118 -231 120 -249 138 -249C146 -249 158 -245 158 -220L158 720C158 745 146 749 138 749C131 749 118 745 118 720Z" stroke="rgb(0,0,0)" stroke-opacity="1" stroke-width="8" fill="rgb(0,0,0)" fill-opacity="1"></path></g></g><g><g transform="matrix(1,0,0,1,363.1458435058594,336.3604370117188)"><path transform="matrix(0.03735,0,0,-0.03735,0,0)" d="M91 47C91 26 94 0 135 0L183 0C230 0 230 31 230 44L230 311L350 311C365 282 382 254 513 28C525 6 533 0 561 0L618 0C634 0 649 1 652 24C651 31 648 37 645 43L481 320C511 328 641 353 641 497C641 551 621 605 578 640C520 687 438 693 380 694L137 694C94 694 91 667 91 648ZM230 383L230 574L231 608L357 608C446 608 507 593 507 495C507 397 444 383 356 383Z" stroke="rgb(0,0,0)" stroke-opacity="1" stroke-width="8" fill="rgb(0,0,0)" fill-opacity="1"></path></g></g><g><g transform="matrix(1,0,0,1,389.4062805175781,336.3604370117188)"><path transform="matrix(0.03735,0,0,-0.03735,0,0)" d="M76 171C76 70 142 -11 250 -11C318 -11 375 14 419 40L427 106C395 85 337 50 263 50C194 50 147 106 147 182C147 193 148 190 151 220L461 220C466 246 472 272 472 307C472 430 395 461 334 461C203 461 76 317 76 171ZM168 275C194 336 254 399 322 399C357 399 416 381 416 288L416 275ZM479 34C533 0 590 -11 638 -11C789 -11 834 95 834 154C834 215 785 246 761 256C708 278 620 269 620 329C620 353 638 401 718 401C786 401 817 384 854 364L879 430C829 453 795 461 743 461C580 461 545 354 545 306C545 252 587 219 625 206C670 190 760 192 760 132C760 104 736 52 652 52C572 52 528 86 505 102ZM898 169C898 66 969 -11 1074 -11C1210 -11 1348 120 1348 274C1348 380 1278 461 1174 461C1033 461 898 315 898 169ZM978 176C978 287 1052 399 1161 399C1228 399 1272 354 1272 280C1272 177 1198 53 1088 53C1043 53 978 78 978 176ZM1424 63C1424 19 1446 -11 1508 -11C1567 -11 1636 4 1697 48L1687 0L1763 0L1857 445L1779 445L1719 165C1716 152 1714 138 1709 126C1697 98 1655 45 1575 45C1537 45 1505 50 1505 85C1505 93 1506 94 1512 126L1579 445L1501 445L1438 146C1434 127 1424 92 1424 63ZM1925 0L2000 0C2043 200 2048 227 2057 250C2083 314 2153 385 2253 388L2267 455C2230 454 2155 449 2071 360L2090 450L2020 450ZM2263 170C2263 70 2327 -11 2437 -11C2511 -11 2565 14 2611 40L2619 107C2577 83 2528 53 2450 53C2378 53 2342 107 2342 174C2342 265 2405 397 2527 397C2600 397 2620 379 2660 351L2685 417C2635 450 2610 461 2537 461C2387 461 2263 310 2263 170ZM2706 171C2706 70 2772 -11 2880 -11C2948 -11 3005 14 3049 40L3057 106C3025 85 2967 50 2893 50C2824 50 2777 106 2777 182C2777 193 2778 190 2781 220L3091 220C3096 246 3102 272 3102 307C3102 430 3025 461 2964 461C2833 461 2706 317 2706 171ZM2798 275C2824 336 2884 399 2952 399C2987 399 3046 381 3046 288L3046 275ZM3109 34C3163 0 3220 -11 3268 -11C3419 -11 3464 95 3464 154C3464 215 3415 246 3391 256C3338 278 3250 269 3250 329C3250 353 3268 401 3348 401C3416 401 3447 384 3484 364L3509 430C3459 453 3425 461 3373 461C3210 461 3175 354 3175 306C3175 252 3217 219 3255 206C3300 190 3390 192 3390 132C3390 104 3366 52 3282 52C3202 52 3158 86 3135 102Z" stroke="rgb(0,0,0)" stroke-opacity="1" stroke-width="8" fill="rgb(0,0,0)" fill-opacity="1"></path></g></g><g><g transform="matrix(1,0,0,1,518.5208435058594,336.3604370117188)"><path transform="matrix(0.03735,0,0,-0.03735,0,0)" d="M55 -250L116 -250C184 -189 308 -51 308 251C308 550 184 689 116 750L55 750C102 700 230 577 230 250C230 -64 115 -186 55 -250ZM453 435C453 417 468 400 489 400C502 400 508 407 612 480C606 373 604 348 604 340C604 321 620 306 639 306C651 306 673 314 673 343C673 348 668 434 665 480L764 410C774 403 783 401 791 401C812 401 824 421 824 435C824 461 812 462 689 527L689 528C814 594 824 595 824 620C824 638 809 655 788 655C775 655 769 649 665 576C671 677 673 705 673 715C673 742 649 750 639 750C627 750 604 743 604 713C604 708 609 622 612 576L514 645C503 652 494 655 486 655C465 655 453 634 453 620C453 594 465 593 588 528L588 527C463 461 453 460 453 435Z" stroke="rgb(0,0,0)" stroke-opacity="1" stroke-width="8" fill="rgb(0,0,0)" fill-opacity="1"></path></g></g></g></g><g><g><g><g transform="matrix(1,0,0,1,63.666656494140625,-94.33233301544189)"><path transform="matrix(0.100001,0,0,-0.100001,0,0)" d="M66 347C66 155 197 -22 394 -22C478 -22 518 -9 588 33L582 103C532 71 498 42 395 42C258 42 156 178 156 347C156 515 258 652 392 652C471 652 513 629 562 599L577 682C488 715 443 716 379 716C236 716 66 574 66 347Z" stroke="rgb(0,0,0)" stroke-opacity="1" stroke-width="8" fill="rgb(0,0,0)" fill-opacity="1"></path></g></g></g></g></svg>
</svg>
